<mxfile host="app.diagrams.net" modified="2024-07-23T02:39:47.161Z" agent="Mozilla/5.0 (Linux; Android 10; K) AppleWebKit/537.36 (KHTML, like Gecko) Chrome/126.0.0.0 Mobile Safari/537.36" version="24.7.3" etag="q1yb8iq9fZi6YvyrvcAI" type="github">
  <diagram name="Page-1" id="ZoBbhAAyALJKzMspaCzH">
    <mxGraphModel>
      <root>
        <mxCell id="0" />
        <mxCell id="1" parent="0" />
      </root>
    </mxGraphModel>
  </diagram>
</mxfile>
